<svg preserveAspectRatio="none" width="100%" height="100%" overflow="visible" style="display: block;" viewBox="0 0 42.38 42.38" fill="none" xmlns="http://www.w3.org/2000/svg">
<g id="SVG">
<path id="Vector" d="M30.9024 33.5498H15.8928C13.6005 33.5492 11.3536 32.9112 9.40299 31.7071C7.45242 30.503 5.87511 28.7802 4.84731 26.7312C3.81951 24.6823 3.38171 22.3879 3.58283 20.1044C3.78396 17.821 4.61609 15.6384 5.98623 13.8007C7.35637 11.9629 9.21055 10.5424 11.3416 9.69778C13.4726 8.85317 15.7965 8.61777 18.0536 9.01789C20.3107 9.41801 22.4121 10.4379 24.1229 11.9636C25.8337 13.4892 27.0866 15.4606 27.7416 17.6573H30.9024C33.0099 17.6573 35.031 18.4945 36.5213 19.9847C38.0115 21.4749 38.8487 23.4961 38.8487 25.6035C38.8487 27.711 38.0115 29.7322 36.5213 31.2224C35.031 32.7126 33.0099 33.5498 30.9024 33.5498Z" stroke="var(--stroke-0, #3AC0FF)" stroke-opacity="0.4" stroke-width="3.53167" stroke-linecap="round" stroke-linejoin="round"/>
</g>
</svg>
