<svg preserveAspectRatio="none" width="100%" height="100%" overflow="visible" style="display: block;" viewBox="0 0 21.46 21.46" fill="none" xmlns="http://www.w3.org/2000/svg">
<g id="SVG">
<path id="Vector" d="M14.3064 7.15234C15.7293 7.15234 17.0939 7.71758 18.1 8.72372C19.1062 9.72985 19.6714 11.0945 19.6714 12.5173V18.7765H16.0947V12.5173C16.0947 12.043 15.9063 11.5882 15.5709 11.2528C15.2356 10.9174 14.7807 10.729 14.3064 10.729C13.8321 10.729 13.3772 10.9174 13.0419 11.2528C12.7065 11.5882 12.5181 12.043 12.5181 12.5173V18.7765H8.94141V12.5173C8.94141 11.0945 9.50665 9.72985 10.5128 8.72372C11.5189 7.71758 12.8835 7.15234 14.3064 7.15234Z" stroke="var(--stroke-0, #3AC0FF)" stroke-opacity="0.4" stroke-width="1.78833" stroke-linecap="round" stroke-linejoin="round"/>
<path id="Vector_2" d="M5.36573 8.04688H1.78906V18.7769H5.36573V8.04688Z" stroke="var(--stroke-0, #3AC0FF)" stroke-opacity="0.4" stroke-width="1.78833" stroke-linecap="round" stroke-linejoin="round"/>
<path id="Vector_3" d="M3.5774 5.36573C4.56507 5.36573 5.36573 4.56507 5.36573 3.5774C5.36573 2.58973 4.56507 1.78906 3.5774 1.78906C2.58973 1.78906 1.78906 2.58973 1.78906 3.5774C1.78906 4.56507 2.58973 5.36573 3.5774 5.36573Z" stroke="var(--stroke-0, #3AC0FF)" stroke-opacity="0.4" stroke-width="1.78833" stroke-linecap="round" stroke-linejoin="round"/>
</g>
</svg>
