<svg preserveAspectRatio="none" width="100%" height="100%" overflow="visible" style="display: block;" viewBox="0 0 24 24" fill="none" xmlns="http://www.w3.org/2000/svg">
<g id="basil:viber-solid">
<path id="Vector" fill-rule="evenodd" clip-rule="evenodd" d="M16.676 2.628C13.5298 1.92472 10.2672 1.92472 7.121 2.628L6.782 2.703C5.89678 2.90033 5.08369 3.33948 4.43326 3.97154C3.78284 4.60361 3.32059 5.40379 3.098 6.283C2.30189 9.4257 2.30189 12.7173 3.098 15.86C3.3103 16.6985 3.74077 17.4658 4.34567 18.0841C4.95057 18.7023 5.70835 19.1494 6.542 19.38L7.007 22.156C7.02184 22.2441 7.06005 22.3267 7.11763 22.3951C7.17522 22.4634 7.25008 22.5151 7.33442 22.5447C7.41877 22.5744 7.50951 22.5808 7.59719 22.5634C7.68488 22.5461 7.76631 22.5055 7.833 22.446L10.564 20.003C12.6141 20.1268 14.6714 19.9628 16.676 19.516L17.016 19.441C17.9012 19.2437 18.7143 18.8045 19.3647 18.1725C20.0152 17.5404 20.4774 16.7402 20.7 15.861C21.4961 12.7183 21.4961 9.4267 20.7 6.284C20.4773 5.40466 20.0149 4.60439 19.3643 3.97231C18.7137 3.34024 17.9004 2.90117 17.015 2.704L16.676 2.628ZM7.965 6.202C7.77914 6.17478 7.58958 6.2122 7.428 6.308H7.414C7.039 6.528 6.701 6.805 6.413 7.131C6.173 7.408 6.043 7.688 6.009 7.958C5.989 8.118 6.003 8.28 6.05 8.433L6.068 8.443C6.338 9.236 6.69 9.999 7.12 10.717C7.6747 11.7253 8.35698 12.658 9.15 13.492L9.174 13.526L9.212 13.554L9.235 13.581L9.263 13.605C10.1 14.4003 11.0348 15.0858 12.045 15.645C13.2 16.274 13.901 16.571 14.322 16.695V16.701C14.445 16.739 14.557 16.756 14.67 16.756C15.0287 16.7303 15.3683 16.5844 15.634 16.342C15.959 16.054 16.234 15.715 16.448 15.338V15.331C16.649 14.951 16.581 14.593 16.291 14.35C15.709 13.8404 15.079 13.3883 14.41 13C13.962 12.757 13.507 12.904 13.323 13.15L12.93 13.646C12.728 13.892 12.362 13.858 12.362 13.858L12.352 13.864C9.621 13.167 8.892 10.402 8.892 10.402C8.892 10.402 8.858 10.026 9.111 9.834L9.603 9.438C9.839 9.246 10.003 8.792 9.75 8.344C9.36258 7.67543 8.91148 7.04584 8.403 6.464C8.29177 6.32738 8.136 6.23427 7.963 6.201M12.579 5C12.4464 5 12.3192 5.05268 12.2254 5.14645C12.1317 5.24021 12.079 5.36739 12.079 5.5C12.079 5.63261 12.1317 5.75979 12.2254 5.85355C12.3192 5.94732 12.4464 6 12.579 6C13.844 6 14.894 6.413 15.725 7.205C16.152 7.638 16.485 8.151 16.703 8.713C16.922 9.276 17.022 9.877 16.996 10.479C16.9932 10.5447 17.0034 10.6102 17.026 10.6719C17.0486 10.7337 17.0831 10.7903 17.1276 10.8387C17.2174 10.9364 17.3424 10.9944 17.475 11C17.6076 11.0056 17.737 10.9582 17.8347 10.8684C17.9324 10.7786 17.9904 10.6536 17.996 10.521C18.0258 9.78056 17.903 9.0419 17.635 8.351C17.3658 7.65658 16.9559 7.02536 16.431 6.497L16.421 6.487C15.39 5.502 14.085 5 12.579 5ZM12.545 6.644C12.4124 6.644 12.2852 6.69668 12.1914 6.79045C12.0977 6.88421 12.045 7.01139 12.045 7.144C12.045 7.27661 12.0977 7.40379 12.1914 7.49755C12.2852 7.59132 12.4124 7.644 12.545 7.644H12.562C13.474 7.709 14.138 8.013 14.603 8.512C15.08 9.026 15.327 9.665 15.308 10.455C15.305 10.5876 15.3547 10.716 15.4463 10.8119C15.5379 10.9078 15.6639 10.9634 15.7965 10.9665C15.9291 10.9695 16.0575 10.9198 16.1534 10.8282C16.2493 10.7366 16.305 10.6106 16.308 10.478C16.332 9.441 15.998 8.546 15.336 7.832V7.83C14.659 7.104 13.73 6.72 12.612 6.645L12.595 6.643L12.545 6.644ZM12.526 8.319C12.4591 8.3131 12.3917 8.32074 12.3278 8.34146C12.2639 8.36219 12.2048 8.39558 12.1541 8.43964C12.1034 8.4837 12.0621 8.53752 12.0326 8.5979C12.0032 8.65827 11.9862 8.72397 11.9827 8.79105C11.9792 8.85813 11.9893 8.92523 12.0123 8.98834C12.0353 9.05145 12.0708 9.10928 12.1167 9.15837C12.1625 9.20746 12.2178 9.2468 12.2792 9.27406C12.3406 9.30131 12.4068 9.31592 12.474 9.317C12.892 9.339 13.159 9.465 13.327 9.634C13.496 9.804 13.622 10.077 13.645 10.504C13.6462 10.5711 13.661 10.6373 13.6884 10.6985C13.7157 10.7598 13.7551 10.815 13.8043 10.8607C13.8534 10.9064 13.9112 10.9418 13.9743 10.9647C14.0374 10.9876 14.1044 10.9976 14.1714 10.994C14.2384 10.9904 14.3041 10.9734 14.3644 10.944C14.4247 10.9145 14.4784 10.8732 14.5224 10.8226C14.5664 10.7719 14.5998 10.7129 14.6205 10.649C14.6412 10.5852 14.6489 10.5179 14.643 10.451C14.611 9.851 14.423 9.321 14.038 8.931C13.651 8.541 13.124 8.351 12.526 8.319Z" fill="var(--fill-0, white)"/>
</g>
</svg>
